{"title":"New Blood S01 1080p BluRay HEVC DD5.1 x265","uid":15454257,"size":7536171525,"categoryP":"video","categoryS":"hd___tv_shows","magnet":"?xt=urn:btih:dedaef607b3d46c39f7365ba08c5b3d83e84c6ec&amp;dn=New+Blood+S01+1080p+BluRay+HEVC+DD5.1+x265&amp;tr=udp%3A%2F%2Ftracker.leechers-paradise.org%3A6969&amp;tr=udp%3A%2F%2Fzer0day.ch%3A1337&amp;tr=udp%3A%2F%2Fopen.demonii.com%3A1337&amp;tr=udp%3A%2F%2Ftracker.coppersurfer.tk%3A6969&amp;tr=udp%3A%2F%2Fexodus.desync.com%3A6969","seeders":0,"leechers":6,"uploader":"nayhtut","files":15,"time":1469969456,"description":"[Screenshots]\r\n\r\n \nhttps://s31.postimg.org/pesaccimj/New_Blood_S01_E07_1080p_Blu_Ray_HEVC_DD5_1_x265_00.jpg \nhttps://s31.postimg.org/8saq39por/New_Blood_S01_E06_1080p_Blu_Ray_HEVC_DD5_1_x265_00.jpg \nhttps://s31.postimg.org/k5x9eh07f/New_Blood_S01_E06_1080p_Blu_Ray_HEVC_DD5_1_x265_00.jpg \nhttps://s31.postimg.org/wyldeebt7/New_Blood_S01_E04_1080p_Blu_Ray_HEVC_DD5_1_x265_00.jpg \nhttps://s31.postimg.org/yrsvggmdn/New_Blood_S01_E02_1080p_Blu_Ray_HEVC_DD5_1_x265_00.jpg \nhttps://s31.postimg.org/63fxd8k7f/New_Blood_S01_E02_1080p_Blu_Ray_HEVC_DD5_1_x265_00.jpg \nhttps://s31.postimg.org/y4tyqxphn/New_Blood_S01_E01_1080p_Blu_Ray_HEVC_DD5_1_x265_00.jpg \nhttps://s31.postimg.org/q0lum732j/New_Blood_S01_E01_1080p_Blu_Ray_HEVC_DD5_1_x265_00.jpg\r\n\r\n\r\nSource:  New Blood S01 1080p BluRay x264-SHORTBREHD (Size: 33 GB)\r\n\r\nContains:  New Blood Season One - Episode 01 to 07 + Season One Featurette\r\n\r\n\r\nFormat                                   : Matroska\r\nFormat version                           : Version 4 / Version 2\r\nFile size                                : 7.01 GiB\r\nDuration                                 : Various\r\nOverall bit rate                         : 2 440 Kbps\r\nWriting application                      : Lavf57.25.100\r\nWriting library                          : Lavf57.25.100\r\n\r\nVideo\r\n\r\nID                                       : 1\r\nFormat                                   : V_MPEGH/ISO/HEVC\r\nCodec ID                                 : V_MPEGH/ISO/HEVC\r\nDuration                                 : 55mn 1s\r\nBit rate                                 : 2 007 Kbps\r\nWidth                                    : 1 920 pixels\r\nHeight                                   : 1 080 pixels\r\nDisplay aspect ratio                     : 16:9\r\nFrame rate                               : 25.000 fps\r\nBits/(Pixel*Frame)                       : 0.039\r\nStream size                              : 790 MiB (82%)\r\nWriting library                          : Lavc57.48.101 libx265\r\nDefault                                  : Yes\r\nForced                                   : No\r\nDURATION                                 : 00:55:01.611000000\r\nNUMBER_OF_FRAMES                         : 82539\r\nNUMBER_OF_BYTES                          : 4068440378\r\n_STATISTICS_WRITING_APP                  : no_variable_data\r\n_STATISTICS_WRITING_DATE_UTC             : 1970-01-01 00:00:00\r\n_STATISTICS_TAGS                         : BPS DURATION NUMBER_OF_FRAMES NUMBER_OF_BYTES\r\n\r\nAudio\r\n\r\nID                                       : 2\r\nFormat                                   : AC-3\r\nFormat/Info                              : Audio Coding 3\r\nMode extension                           : CM (complete main)\r\nFormat settings, Endianness              : Big\r\nCodec ID                                 : A_AC3\r\nDuration                                 : 55mn 1s\r\nBit rate mode                            : Constant\r\nBit rate                                 : 384 Kbps\r\nChannel(s)                               : 6 channels\r\nChannel positions                        : Front: L C R, Side: L R, LFE\r\nSampling rate                            : 48.0 KHz\r\nBit depth                                : 16 bits\r\nCompression mode                         : Lossy\r\nStream size                              : 151 MiB (16%)\r\nWriting library                          : Lavc57.24.102 ac3\r\nLanguage                                 : English\r\nDefault                                  : Yes\r\nForced                                   : No\r\nDURATION                                 : 00:55:01.695000000\r\nNUMBER_OF_FRAMES                         : 309525\r\nNUMBER_OF_BYTES                          : 622764300\r\n_STATISTICS_WRITING_APP                  : no_variable_data\r\n_STATISTICS_WRITING_DATE_UTC             : 1970-01-01 00:00:00\r\n_STATISTICS_TAGS                         : BPS DURATION NUMBER_OF_FRAMES NUMBER_OF_BYTES\r\n\r\nMenu\r\n\r\n00:00:00.000                             : :00:00:00.000\r\n00:09:45.000                             : :00:09:45.000\r\n00:19:49.040                             : :00:19:49.040\r\n00:30:07.120                             : :00:30:07.120\r\n00:41:24.560                             : :00:41:24.560\r\n\r\n\r\n__--__--__--__--__--__--__--__--__--__--__--__--__--\r\n\r\n\r\nIMDb: http://www.imdb.com/title/tt4513868\r\n\r\n\r\n__--__--__--__--__--__--__--__--__--__--__--__--__--\r\n\r\n\r\nAfter adding torrent with maget link,\r\n\r\nplease add this  following trackers list to the torrent for better seeds.\r\n\r\n\r\nudp://tracker.coppersurfer.tk:6969/announce\r\n\r\nudp://tracker.opentrackr.org:1337/announce\r\n \nhttp://tracker.baravik.org:6970/announce\r\n \nhttp://tracker2.wasabii.com.tw:6969/announce\r\n\r\nudp://9.rarbg.me:2710/announce\r\n\r\n\r\n__--__--__--__--__--__--__--__--__--__--__--__--__--\r\n\r\n\r\nEnjoy!","torrent":{"xt":"urn:btih:dedaef607b3d46c39f7365ba08c5b3d83e84c6ec","amp;dn":"New+Blood+S01+1080p+BluRay+HEVC+DD5.1+x265","amp;tr":["udp%3A%2F%2Ftracker.leechers-paradise.org%3A6969","udp%3A%2F%2Fzer0day.ch%3A1337","udp%3A%2F%2Fopen.demonii.com%3A1337","udp%3A%2F%2Ftracker.coppersurfer.tk%3A6969","udp%3A%2F%2Fexodus.desync.com%3A6969"],"infoHash":"dedaef607b3d46c39f7365ba08c5b3d83e84c6ec","infoHashBuffer":{"type":"Buffer","data":[222,218,239,96,123,61,70,195,159,115,101,186,8,197,179,216,62,132,198,236]},"announce":[],"urlList":[]}}